<svg xmlns="http://www.w3.org/2000/svg" viewBox="0 0 32 32">
  <rect width="32" height="32" fill="#fbfbf9"/>
  <!-- Korean peninsula in pixel art style -->
  <rect x="10" y="2" width="4" height="2" fill="#15120d"/>
  <rect x="14" y="2" width="2" height="2" fill="#15120d"/>
  <rect x="8" y="4" width="4" height="2" fill="#15120d"/>
  <rect x="12" y="4" width="6" height="2" fill="#15120d"/>
  <rect x="18" y="4" width="2" height="2" fill="#15120d"/>
  <rect x="6" y="6" width="2" height="2" fill="#15120d"/>
  <rect x="8" y="6" width="6" height="2" fill="#15120d"/>
  <rect x="14" y="6" width="6" height="2" fill="#15120d"/>
  <rect x="6" y="8" width="2" height="2" fill="#15120d"/>
  <rect x="8" y="8" width="8" height="2" fill="#15120d"/>
  <rect x="16" y="8" width="2" height="2" fill="#15120d"/>
  <rect x="8" y="10" width="8" height="2" fill="#15120d"/>
  <rect x="16" y="10" width="2" height="2" fill="#15120d"/>
  <rect x="8" y="12" width="8" height="2" fill="#15120d"/>
  <rect x="16" y="12" width="2" height="2" fill="#15120d"/>
  <rect x="8" y="14" width="10" height="2" fill="#15120d"/>
  <rect x="10" y="16" width="8" height="2" fill="#15120d"/>
  <rect x="10" y="18" width="8" height="2" fill="#15120d"/>
  <rect x="10" y="20" width="6" height="2" fill="#15120d"/>
  <rect x="12" y="22" width="4" height="2" fill="#15120d"/>
  <rect x="12" y="24" width="4" height="2" fill="#15120d"/>
  <rect x="12" y="26" width="2" height="2" fill="#15120d"/>
</svg>
